<?xml version="1.0" standalone="no"?>
<!DOCTYPE svg PUBLIC "-//W3C//DTD SVG 20010904//EN"
 "http://www.w3.org/TR/2001/REC-SVG-20010904/DTD/svg10.dtd">
<svg version="1.0" xmlns="http://www.w3.org/2000/svg"
 width="2038.000000pt" height="1902.000000pt" viewBox="0 0 2038.000000 1902.000000"
 preserveAspectRatio="xMidYMid meet">

<g transform="translate(0.000000,1902.000000) scale(0.100000,-0.100000)"
fill="#000000" stroke="none">
<path d="M0 9510 l0 -9510 10190 0 10190 0 0 9510 0 9510 -10190 0 -10190 0 0
-9510z m6485 1825 c198 -28 335 -65 505 -137 437 -185 769 -575 890 -1048 90
-350 76 -768 -37 -1100 -147 -433 -497 -795 -918 -949 -40 -14 -72 -30 -73
-36 0 -5 144 -190 322 -410 299 -371 463 -577 788 -990 l126 -160 -447 -3
-446 -3 -25 32 c-14 18 -131 163 -260 324 -129 160 -336 420 -459 576 -123
156 -270 341 -325 411 l-101 128 -382 0 -383 0 0 118 c0 95 3 122 18 143 9 14
89 101 177 192 l159 167 377 0 c394 0 422 2 579 48 273 80 472 244 599 492 90
176 125 329 125 540 -1 154 -21 259 -77 408 -126 336 -419 575 -787 642 -46 8
-322 12 -962 11 -865 0 -901 -1 -983 -20 -147 -35 -244 -96 -398 -248 -93 -93
-159 -182 -205 -280 l-27 -58 0 -1813 0 -1812 -182 0 -183 0 0 2425 0 2425
1448 0 c1202 0 1464 -3 1547 -15z m194 -970 c149 -166 167 -183 191 -178 37 7
104 -13 139 -43 89 -75 73 -236 -29 -289 -57 -29 -151 -16 -198 28 -57 53 -73
154 -35 219 l20 35 -70 79 c-39 43 -105 116 -148 162 l-78 82 -982 0 -983 0
-217 -216 c-234 -234 -254 -246 -254 -166 0 42 3 45 215 257 l215 215 1025 0
1025 -1 164 -184z m-1435 -89 c59 -35 90 -93 84 -161 -8 -95 -77 -159 -173
-159 -65 0 -116 30 -151 90 l-26 44 -196 0 -197 -1 -219 -213 -219 -213 1
-663 1 -664 -87 -83 c-48 -45 -90 -82 -94 -83 -5 0 -8 13 -8 29 0 16 -2 35 -5
43 -3 7 17 39 45 70 l50 56 0 665 0 665 244 239 244 238 223 0 c177 0 223 3
227 13 8 26 67 85 97 98 48 21 113 17 159 -10z m7156 -8 c107 -19 221 -75 314
-152 l29 -24 -64 -70 -64 -69 -40 32 c-196 159 -490 150 -669 -20 -220 -212
-182 -611 75 -776 75 -48 156 -69 265 -69 112 0 196 19 279 63 l60 32 3 143 3
142 -173 0 -173 0 0 85 0 85 268 0 267 0 0 -264 0 -264 -52 -39 c-123 -92
-255 -146 -402 -165 -78 -10 -109 -9 -187 4 -340 55 -562 298 -576 628 -6 137
13 227 73 349 79 159 204 268 376 325 128 43 247 50 388 24z m2790 -23 c93
-29 153 -60 217 -112 l42 -34 -42 -53 c-23 -29 -47 -61 -53 -72 -10 -18 -12
-18 -35 -1 -67 48 -107 71 -168 95 -56 22 -82 26 -176 26 -96 1 -116 -2 -157
-22 -123 -61 -128 -222 -8 -294 26 -16 116 -46 213 -73 271 -73 368 -129 424
-243 25 -51 28 -68 28 -152 -1 -116 -21 -167 -95 -241 -89 -89 -218 -132 -390
-131 -170 2 -342 65 -460 171 l-55 49 64 66 64 65 43 -38 c96 -84 225 -131
363 -131 177 0 280 78 269 202 -4 38 -12 57 -38 83 -42 43 -92 64 -271 114
-223 61 -293 93 -365 169 -78 82 -101 222 -58 345 42 118 163 209 317 237 87
15 232 4 327 -25z m-5645 4 c154 -20 276 -102 338 -228 30 -61 32 -72 32 -171
-1 -130 -23 -194 -96 -275 -59 -64 -101 -92 -176 -115 l-54 -17 182 -229 c100
-126 186 -235 192 -241 7 -10 -16 -13 -111 -13 l-120 0 -129 163 c-71 89 -153
194 -183 234 l-55 72 -152 1 -153 0 0 -235 0 -235 -95 0 -95 0 0 649 0 649
298 1 c163 0 333 -4 377 -10z m1359 -89 c24 -52 85 -185 136 -295 111 -242
301 -662 363 -802 l46 -103 -108 0 -107 0 -65 153 -65 152 -338 0 -338 0 -67
-150 -66 -150 -104 -3 c-81 -2 -102 0 -98 10 5 12 109 243 274 608 112 248
284 632 294 658 8 22 13 23 104 20 l96 -3 43 -95z m2377 58 c1 -24 4 -218 8
-433 7 -372 8 -393 30 -447 31 -80 96 -148 173 -183 84 -38 202 -40 293 -5 79
31 154 105 186 185 23 59 24 66 29 490 l5 430 95 0 95 0 0 -425 c0 -474 -2
-489 -71 -620 -62 -118 -160 -199 -301 -246 -64 -22 -96 -26 -178 -26 -225 1
-409 109 -493 290 -55 120 -55 125 -59 595 l-4 437 95 0 96 0 1 -42z m3222
-178 c54 -118 125 -273 157 -345 82 -182 151 -336 227 -505 36 -80 74 -164 84
-187 l18 -43 -110 0 -110 0 -10 28 c-5 15 -34 83 -63 152 l-53 125 -337 0
-337 0 -66 -152 -65 -153 -104 0 c-57 0 -104 2 -104 4 0 2 16 39 36 82 20 44
111 246 201 449 91 204 197 440 235 525 39 85 79 174 89 198 l19 43 97 -3 97
-3 99 -215z m-10466 -112 c67 -46 91 -143 53 -218 -30 -59 -82 -90 -150 -90
-64 0 -103 20 -146 74 l-29 36 -525 -1 -525 0 -153 -147 -152 -148 -3 -579 -2
-580 -42 -3 -41 -3 -7 93 c-3 51 -5 319 -3 595 l3 503 180 180 180 180 542 0
543 0 19 38 c23 45 45 66 91 87 46 20 122 13 167 -17z m856 -392 c68 -29 113
-110 102 -182 -18 -126 -170 -196 -267 -124 -29 21 -31 21 -397 14 l-368 -7
-11 33 c-8 22 -8 38 -1 51 9 18 26 19 354 19 l345 0 0 38 c0 55 39 123 86 149
45 26 109 30 157 9z m-1059 -147 c39 -31 59 -76 58 -136 -1 -123 -94 -182
-169 -107 -14 14 -26 24 -27 22 -34 -73 -97 -76 -150 -5 -29 39 -36 175 -12
212 22 33 69 33 119 0 32 -22 38 -24 43 -10 8 21 53 44 85 45 15 0 38 -9 53
-21z m-379 -52 c0 -45 5 -61 18 -68 14 -8 17 -24 17 -82 0 -75 -9 -97 -41 -97
-18 0 -29 19 -29 50 0 22 -73 60 -114 60 -39 0 -31 30 13 52 49 25 62 41 68
84 6 48 20 66 47 62 19 -3 21 -10 21 -61z m1071 -306 c99 -45 131 -159 70
-251 -28 -43 -96 -80 -146 -80 -50 0 -118 37 -146 80 -14 21 -36 41 -49 44
-12 3 -177 5 -366 5 l-344 -1 -247 -246 -248 -247 0 -689 0 -690 -160 -161
-160 -161 0 -67 0 -67 -40 0 -40 0 0 92 0 93 150 150 150 150 0 689 0 689 273
276 272 276 280 0 c154 0 330 1 392 3 l111 2 26 44 c45 78 137 105 222 67z
m-1719 -308 c46 -21 90 -84 98 -137 11 -71 -32 -150 -96 -176 l-29 -12 0 -495
0 -495 -170 -165 -170 -165 0 -289 0 -289 -45 0 -45 0 0 309 0 309 170 163
170 162 0 473 0 473 -27 15 c-32 16 -75 60 -92 93 -6 12 -11 44 -11 70 0 125
134 210 247 156z m6065 -347 c68 -28 140 -83 136 -104 -2 -8 -15 -24 -30 -35
l-28 -21 -27 27 c-101 96 -284 94 -382 -4 -75 -74 -101 -207 -62 -310 39 -103
149 -179 257 -179 48 0 123 27 164 59 56 44 58 44 91 13 l32 -29 -52 -41 c-79
-63 -148 -85 -251 -80 -146 7 -259 80 -318 206 -24 50 -27 70 -27 157 0 93 2
105 33 167 80 163 295 243 464 174z m768 -8 c77 -36 131 -86 171 -160 33 -61
34 -67 34 -173 0 -106 -1 -112 -34 -173 -39 -72 -91 -121 -171 -160 -49 -24
-66 -27 -155 -27 -89 0 -106 3 -157 28 -77 38 -134 96 -171 175 -27 59 -31 77
-31 152 1 173 94 303 257 356 67 22 190 13 257 -18z m1580 0 c30 -15 66 -35
79 -46 l24 -19 -29 -36 c-28 -36 -29 -36 -49 -18 -35 33 -106 63 -160 68 -102
11 -165 -32 -165 -112 0 -61 31 -84 171 -125 128 -37 174 -57 206 -92 66 -71
57 -188 -21 -255 -102 -90 -317 -78 -445 25 l-25 20 27 36 28 35 44 -33 c57
-44 105 -60 181 -59 67 1 111 19 143 59 25 31 26 55 6 93 -17 35 -52 52 -174
86 -138 39 -186 67 -218 130 -21 39 -20 122 1 162 19 38 73 83 118 100 19 7
69 11 118 10 68 -2 96 -8 140 -29z m3751 16 c57 -16 149 -72 149 -90 0 -5 -13
-22 -28 -37 -28 -27 -29 -27 -46 -8 -58 64 -228 87 -312 43 -139 -72 -191
-253 -115 -399 65 -127 239 -177 377 -108 l59 30 3 82 3 82 -102 3 -102 3 -1
40 -1 40 148 3 147 3 0 -145 0 -144 -35 -26 c-105 -80 -250 -107 -373 -68
-185 59 -287 248 -238 442 51 200 260 314 467 254z m-7983 -351 l2 -353 -45 0
-45 0 0 356 0 355 43 -3 42 -3 3 -352z m720 310 l3 -43 -120 0 -121 0 0 -310
0 -310 -45 0 -45 0 0 310 0 310 -120 0 -120 0 0 45 0 45 283 -2 282 -3 3 -42z
m2428 20 c9 -16 103 -135 208 -266 l191 -238 3 265 2 266 45 0 45 0 2 -340 c0
-187 1 -346 2 -352 1 -8 -14 -14 -39 -16 -39 -3 -41 -1 -103 80 -35 46 -131
169 -215 275 l-152 192 -3 -274 -2 -275 -45 0 -45 0 0 355 0 355 44 0 c37 0
47 -4 62 -27z m1444 -183 c0 -223 8 -290 44 -342 55 -82 179 -107 268 -55 36
21 53 40 75 84 28 58 28 59 31 291 l4 233 41 -3 42 -3 0 -230 c0 -284 -8 -320
-89 -400 -80 -80 -186 -105 -302 -70 -78 23 -129 67 -166 143 l-33 67 -4 247
-3 248 46 0 46 0 0 -210z m808 -102 l2 -308 190 0 190 0 0 -45 0 -45 -234 0
-234 0 -4 348 c-2 191 -2 351 0 355 2 4 23 7 45 5 l42 -3 3 -307z m862 267 l0
-45 -120 0 -120 0 0 -310 0 -310 -45 0 -45 0 0 310 0 310 -120 0 -120 0 0 45
0 45 285 0 285 0 0 -45z m245 -310 l0 -350 -42 -3 -43 -3 0 356 0 356 43 -3
42 -3 0 -350z m519 82 l211 -268 3 270 2 271 45 0 45 0 0 -356 0 -355 -42 3
c-40 3 -45 7 -116 98 -177 230 -346 440 -351 440 -3 0 -5 -121 -3 -270 l3
-270 -46 0 -45 0 0 356 0 355 42 -3 41 -3 211 -268z m-5814 -132 l0 -45 -205
0 -205 0 0 45 0 45 205 0 205 0 0 -45z m-6003 -202 c19 -9 48 -34 64 -56 24
-33 29 -50 29 -97 0 -68 -24 -110 -88 -153 l-42 -28 0 -475 0 -474 -45 0 -45
0 0 479 0 479 -31 12 c-38 16 -86 80 -95 127 -13 69 36 161 101 189 42 18 110
17 152 -3z"/>
<path d="M6837 10070 c-15 -17 -27 -40 -27 -50 0 -65 60 -109 119 -89 37 13
51 35 51 82 0 48 -27 77 -76 84 -36 5 -43 2 -67 -27z"/>
<path d="M5095 10185 c-35 -34 -33 -78 4 -116 31 -31 59 -36 94 -17 33 17 46
39 47 79 0 73 -92 108 -145 54z"/>
<path d="M9062 9843 l3 -238 170 -3 c322 -5 421 24 470 140 23 56 20 155 -7
208 -31 60 -98 104 -181 119 -35 6 -152 11 -261 11 l-196 0 2 -237z"/>
<path d="M10682 9848 c-44 -101 -101 -231 -126 -290 l-45 -108 254 0 255 0 -9
23 c-5 12 -48 112 -96 222 -48 110 -99 227 -112 260 -14 33 -28 64 -32 68 -4
4 -44 -74 -89 -175z"/>
<path d="M16287 10000 c-9 -19 -34 -78 -57 -130 -73 -165 -180 -417 -180 -423
0 -3 115 -6 255 -6 153 -1 255 2 255 8 0 5 -14 40 -31 78 -17 37 -71 159 -120
271 -114 260 -104 245 -122 202z"/>
<path d="M5889 9860 c-29 -17 -43 -66 -29 -100 37 -90 165 -65 162 32 -2 61
-78 100 -133 68z"/>
<path d="M6782 9453 c-18 -7 -42 -57 -42 -88 0 -62 91 -99 137 -55 74 69 0
181 -95 143z"/>
<path d="M5593 9343 c-9 -3 -13 -25 -12 -61 1 -83 10 -105 42 -109 l27 -4 0
71 c0 95 -14 121 -57 103z"/>
<path d="M5773 9332 c-6 -4 -15 -30 -18 -58 -9 -62 5 -94 41 -94 25 0 25 1 22
77 -3 79 -13 96 -45 75z m8 -92 c-9 -23 -10 -21 -10 16 -1 22 2 44 7 48 11 12
14 -37 3 -64z"/>
<path d="M5401 9234 c0 -11 3 -14 6 -6 3 7 2 16 -1 19 -3 4 -6 -2 -5 -13z"/>
<path d="M6392 8937 c-36 -38 -38 -78 -7 -115 30 -36 67 -42 114 -17 32 16 41
33 41 76 0 70 -100 107 -148 56z"/>
<path d="M4675 8625 c-49 -48 -18 -145 45 -145 67 0 109 48 95 109 -13 62 -94
83 -140 36z"/>
<path d="M11408 8307 c-203 -58 -263 -344 -101 -487 135 -119 339 -78 426 85
31 58 31 202 0 260 -28 52 -88 110 -135 129 -53 23 -136 28 -190 13z"/>
<path d="M4078 7705 c-81 -45 -54 -165 37 -165 47 0 95 45 95 89 0 64 -76 107
-132 76z"/>
</g>
</svg>
